<svg xmlns="http://www.w3.org/2000/svg"
     width="100" height="100"
     viewBox="0 0 100 100">

  <defs>
    <symbol id="letter-L" viewBox="-50 -50 100 100">
      <path transform="scale(0.13)"
            d="M-40 -50 H-20 V30 H30 V50 H-40Z" />
    </symbol>

    <symbol id="letter-O" viewBox="-50 -50 100 100">
      <path transform="scale(0.13)"
            fill-rule="evenodd"
            d="M-40 -50 H40 V50 H-40Z M-20 -30 H20 V30 H-20Z" />
    </symbol>

    <symbol id="letter-A" viewBox="-50 -50 100 100">
      <path transform="scale(0.13)"
            fill-rule="evenodd"
            d="M-40 -50 H40 V50 H20 V20 H-20 V50 H-40Z M-20 -30 H20 V0 H-20Z" />
    </symbol>

    <symbol id="letter-D" viewBox="-50 -50 100 100">
      <path transform="scale(0.13)"
            d="M-40 -50 H20 V-30 H-20 V30 H20 V50 H-40Z M20 -30 H40 V30 H20Z" />
    </symbol>

    <symbol id="letter-I" viewBox="-50 -50 100 100">
      <path transform="scale(0.13)"
            d="M-20 -50 H20 V-30 H10 V30 H20 V50 H-20 V30 H-10 V-30 H-20Z" />
    </symbol>

    <symbol id="letter-N" viewBox="-50 -50 100 100">
      <path transform="scale(0.13)"
            d="M-40 -50 H-20 L20 13 V-50 H40 V50 H20 L-20 -13 V50 H-40Z" />
    </symbol>

    <symbol id="letter-G" viewBox="-50 -50 100 100">
      <path transform="scale(0.13)"
            d="M-40 -50 H30 V-30 H-20 V30 H20 V10 H0 V-10 H40 V50 H-40Z" />
    </symbol>

    <linearGradient id="color"
        x1="-0.2" y1="0" x2="1.2" y2="0"
        gradientTransform="skewX(-3)">
      <!-- Editing the "stop-color" properties will change the color of the lines -->
      <stop offset="1" stop-color="#f0e9a5" />
      <stop offset="0" stop-color="#90917f" />
    </linearGradient>

    <symbol id="loading-icon" viewBox="0 0 100 100">
      <g stroke="url(#color)" stroke-width="2" fill="none">
        <path d="M0 70 H100 M0 76 H100" />
        <path d="M0 70 H100 M0 76 H100" transform="rotate(180 50 50)" />
      </g>

      <!-- Editing the "fill" property will change the color of the text -->
      <g fill="#f0e9a5">
        <use href="#letter-L" x="-39" />
        <use href="#letter-O" x="-26" />
        <use href="#letter-A" x="-12" />
        <use href="#letter-D" x="+2" />
        <use href="#letter-I" x="+14" />
        <use href="#letter-N" x="+26" />
        <use href="#letter-G" x="+40" />
      </g>

      <animate href="#color"
          attributeName="x2"
          dur="1.8s"
          values="-0.2; 1.2; 1.2"
          keyTimes="0; 0.75; 1"
          repeatCount="indefinite" />
    </symbol>
  </defs>

  <use href="#loading-icon" />
</svg>
